<svg xmlns="http://www.w3.org/2000/svg" viewBox="0 0 128 128"><defs><linearGradient id="c1pg" x1="0" x2="1"><stop offset="0" stop-color="#f8ecd2"/><stop offset="1" stop-color="#ead39e"/></linearGradient><linearGradient id="c1rg" x1="0" y1="0" x2="0" y2="1"><stop offset="0" stop-color="#f6e5b5"/><stop offset=".45" stop-color="#e2c47f"/><stop offset="1" stop-color="#a98140"/></linearGradient></defs>
    <g transform="rotate(-8 64 64)">
    <path d="M30 26 H100 V96 C100 106 92 112 84 112 H22 C30 112 34 106 34 98 Z" fill="url(#c1pg)" stroke="#6b4a1f" stroke-width="4" stroke-linejoin="round"/>
    <path d="M22 112 C14 112 10 106 10 100 C10 94 14 90 20 90 C27 90 30 95 30 99 C30 103 27 105 24 105" fill="#d9b874" stroke="#6b4a1f" stroke-width="4" stroke-linecap="round"/>
    <path d="M30 26 C30 16 38 12 46 12 H110 C118 12 120 18 120 22 C120 28 115 32 108 32 H100" fill="url(#c1rg)" stroke="#6b4a1f" stroke-width="4" stroke-linejoin="round"/>
    <path d="M30 26 C30 20 34 16 40 16 C46 16 48 21 48 24 C48 28 45 30 42 30" fill="none" stroke="#6b4a1f" stroke-width="3.5" stroke-linecap="round"/>
    <line x1="44" y1="46" x2="90" y2="46" stroke="#cfb27a" stroke-width="4" stroke-linecap="round"/><line x1="44" y1="57" x2="84" y2="57" stroke="#cfb27a" stroke-width="4" stroke-linecap="round"/><line x1="44" y1="68" x2="92" y2="68" stroke="#cfb27a" stroke-width="4" stroke-linecap="round"/><line x1="44" y1="79" x2="74" y2="79" stroke="#cfb27a" stroke-width="4" stroke-linecap="round"/>
    </g>
    
  <defs><linearGradient id="c1og" x1="0" y1="1" x2="1" y2="0">
    <stop offset="0" stop-color="#c2410c"/><stop offset=".55" stop-color="#e8590c"/><stop offset="1" stop-color="#ff7a1a"/>
  </linearGradient></defs>
  <polyline points="16,98 40,68 58,84 96,38" fill="none" stroke="#4a1a00" stroke-width="22" stroke-linejoin="round" stroke-linecap="round"/>
  <polygon points="110.3,20.7 107.4,57.2 75.0,30.4" fill="#4a1a00" stroke="#4a1a00" stroke-width="9" stroke-linejoin="round"/>
  <polyline points="16,98 40,68 58,84 96,38" fill="none" stroke="url(#c1og)" stroke-width="13" stroke-linejoin="round" stroke-linecap="round"/>
  <polygon points="110.3,20.7 107.4,57.2 75.0,30.4" fill="url(#c1og)" stroke="url(#c1og)" stroke-width="2" stroke-linejoin="round"/></svg>